<svg width="87" height="75" viewBox="0 0 87 75" fill="none" xmlns="http://www.w3.org/2000/svg">
<path fill-rule="evenodd" clip-rule="evenodd" d="M85.0297 33.2737C86.3539 35.9143 86.3539 39.0237 85.0297 41.6643L70.9707 69.7583C69.3809 72.9341 66.1387 74.938 62.5879 74.938H23.4359C19.8851 74.938 16.639 72.9341 15.0492 69.7583L0.990225 41.6643C-0.330075 39.0237 -0.330075 35.9143 0.990225 33.2737L15.0492 5.1797C16.639 2.0039 19.8851 0 23.4359 0H62.5879C66.1387 0 69.3809 2.0039 70.9707 5.1797L85.0297 33.2737ZM43.0097 15.5937C30.9357 15.5937 21.1347 25.3984 21.1347 37.4687C21.1347 49.539 30.9355 59.3437 43.0097 59.3437C55.0839 59.3437 64.8847 49.539 64.8847 37.4687C64.8847 25.3984 55.0839 15.5937 43.0097 15.5937ZM43.0097 21.8437C51.6347 21.8437 58.6347 28.8437 58.6347 37.4687C58.6347 46.0937 51.6347 53.0937 43.0097 53.0937C34.3886 53.0937 27.3847 46.0937 27.3847 37.4687C27.3847 28.8437 34.3886 21.8437 43.0097 21.8437Z" fill="black"/>
</svg>
